<svg xmlns="http://www.w3.org/2000/svg" viewBox="0 0 32 32"><path fill="#E3F8FB" d="M7,31c-3.31368,0 -6,-2.68632 -6,-6v-18c0,-3.31368 2.68632,-6 6,-6h18c3.31368,0 6,2.68632 6,6v18c0,3.31368 -2.68632,6 -6,6Z"/><path fill="#25C6DA" fill-rule="evenodd" d="M22.0981 10.4038c.1978.0275.3451.1966.3451.3963v6.7246l1.03-.3441c.2095-.07.4361.0431.5061.2527.07.2095-.0431.4361-.2526.5061l-1.5568.52c-.122.0407-.2561.0203-.3605-.0548-.1043-.0752-.1662-.196-.1662-.3246v-4.3951l-2.1556 7.6239c-.0543.1921-.2421.3148-.4398.2874-.1978-.0275-.3451-.1966-.3451-.3962v-5.937l-2.0145 3.7849c-.0737.1385-.2216.2211-.3782.2113-.1566-.0099-.293-.1104-.3487-.2571l-1.054-2.7725-.9796 2.0246c-.0696.1438-.218.2324-.3776.2254-.1595-.007-.2996-.1082-.3564-.2575l-.4787-1.2592-.5106.4832c-.1356.1284-.3421.1458-.4973.0419l-1.1294-.7555c-.1837-.1229-.2329-.3713-.1101-.5549.1228-.1836.3713-.2329.5549-.1101l.864.578.7143-.676c.0971-.0919.2337-.1292.3641-.0994.1303.0298.2372.1228.2847.2478l.3621.9525.9796-2.0246c.0696-.1438.218-.2324.3775-.2254.1596.007.2997.1082.3565.2575l1.0707 2.8164 2.3536-4.4222c.0863-.1621.2718-.2446.4499-.2002.1782.0445.3032.2045.3032.3881v4.6551l2.1556-7.6239c.0543-.1921.242-.3148.4398-.2874zM8 16.4c0-.2209.17908-.4.4-.4h.39999c.22091 0 .4.1791.4.4 0 .2209-.17909.4-.4.4h-.39999c-.22092 0-.4-.1791-.4-.4z"/></svg>